<svg width="375" height="357" viewBox="0 0 375 357" fill="none" xmlns="http://www.w3.org/2000/svg">
<path fill-rule="evenodd" clip-rule="evenodd" d="M47.4785 314.303C61.3105 345.792 61.9838 347.325 52.6945 347.325V349.084H77V347.325C70.0905 347.325 68.7723 344.13 58.9619 320.35C55.604 312.21 51.2513 301.66 45.3389 288H43.58H43.42H41.6611C35.7487 301.66 31.396 312.21 28.0381 320.35C18.2277 344.13 16.9095 347.325 10 347.325V349.084H34.3055V347.325C25.0162 347.325 25.6895 345.792 39.5215 314.303C40.7441 311.519 42.0696 308.502 43.5 305.231C44.9304 308.502 46.2559 311.519 47.4785 314.303Z" fill="white"/>
<path d="M153 338H152C152 344 152 344 129 344L142 327L128.5 310C151.5 310 152 310 152 314H153V305H120V307L136 327L119 348V349H153V338Z" fill="white"/>
<path d="M333 343V311C333 308 333 306 328 306V305H344V306C339 306 339 308 339 311V323.8L353 308C353 308 354 306 349 306V305H365V306C360 306 358 309 358 309L344 327L358 345C358 345 360 348 365 348V349H349V348C354 348 352 346 352 346L339 330V343C339 346 339 348 344 348V349H328V348C333 348 333 346 333 343Z" fill="white"/>
<path d="M318 338H317C317 344 317 344 294 344L307 327L293.5 310C316.5 310 317 310 317 314H318V305H285V307L301 327L284 348V349H318V338Z" fill="white"/>
<path d="M159 349V348C164 348 164 346 164 343V310C164 307 164 306 159 306V305H175V306C170 306 170 306 170 307L189 337V310C189 307 189 306 184 306V305H200V306C195 306 195 307 195 310V343C195 346 195 348 200 348V349H184V348C189 348 189 348 189 347L170 318V343C170 346 170 348 175 348V349H159Z" fill="white"/>
<path d="M103 349V348C98 348 98 346 98 343V309C112 309 112 309 112 314H113V305H77V314H78C78 309 78 309 92 309V343C92 346 92 348 87 348V349H103Z" fill="white"/>
<path d="M276.167 349V347.614C268.25 347.614 268.25 344.841 268.25 340.682V293.545C290.417 293.545 290.417 293.545 290.417 300.477H292V288H235V300.477H236.583C236.583 293.545 236.583 293.545 258.75 293.545V340.682C258.75 344.841 258.75 347.614 250.833 347.614V349H276.167Z" fill="white"/>
<path fill-rule="evenodd" clip-rule="evenodd" d="M206 326C206 323 206 305 224 305C242 305 242 323 242 326C242 329 242 349 224 349C206 349 206 329 206 326ZM212.993 325.642C212.928 322.082 212.69 309 224 309C235.31 309 235.072 322.082 235.007 325.642C235.003 325.859 235 326.041 235 326.182C235 326.32 235.003 326.502 235.007 326.723C235.071 330.426 235.325 345 224 345C212.675 345 212.929 330.426 212.993 326.723C212.997 326.502 213 326.32 213 326.182C213 326.041 212.997 325.859 212.993 325.642Z" fill="white"/>
<path d="M19 282H0V357H19V354H6V285H19V282Z" fill="#FB0005"/>
<path d="M356 282H375V357H356V354H369V285H356V282Z" fill="#FF0000"/>
<mask id="path-11-inside-1_0:1" fill="white">
<path fill-rule="evenodd" clip-rule="evenodd" d="M174.116 122.007C127.942 227.124 125.695 232.24 156.704 232.24V238.112H75.568V232.24C98.6332 232.24 103.033 221.574 135.782 142.193C146.992 115.022 161.522 79.8021 181.258 34.2039H187.13H187.664H193.536C213.272 79.802 227.802 115.022 239.011 142.193C271.761 221.574 276.161 232.24 299.226 232.24V238.112H218.09V232.24C249.099 232.24 246.852 227.124 200.678 122.007C196.597 112.716 192.172 102.643 187.397 91.7241C182.622 102.643 178.197 112.716 174.116 122.007Z"/>
</mask>
<path fill-rule="evenodd" clip-rule="evenodd" d="M174.116 122.007C127.942 227.124 125.695 232.24 156.704 232.24V238.112H75.568V232.24C98.6332 232.24 103.033 221.574 135.782 142.193C146.992 115.022 161.522 79.8021 181.258 34.2039H187.13H187.664H193.536C213.272 79.802 227.802 115.022 239.011 142.193C271.761 221.574 276.161 232.24 299.226 232.24V238.112H218.09V232.24C249.099 232.24 246.852 227.124 200.678 122.007C196.597 112.716 192.172 102.643 187.397 91.7241C182.622 102.643 178.197 112.716 174.116 122.007Z" fill="white"/>
<path d="M156.704 232.24H157.704V231.24H156.704V232.24ZM174.116 122.007L175.032 122.409L175.032 122.409L174.116 122.007ZM156.704 238.112V239.112H157.704V238.112H156.704ZM75.568 238.112H74.568V239.112H75.568V238.112ZM75.568 232.24V231.24H74.568V232.24H75.568ZM135.782 142.193L136.707 142.574L136.707 142.574L135.782 142.193ZM181.258 34.2039V33.2039H180.602L180.341 33.8067L181.258 34.2039ZM193.536 34.2039L194.453 33.8067L194.192 33.2039H193.536V34.2039ZM239.011 142.193L238.087 142.574L238.087 142.574L239.011 142.193ZM299.226 232.24H300.226V231.24H299.226V232.24ZM299.226 238.112V239.112H300.226V238.112H299.226ZM218.09 238.112H217.09V239.112H218.09V238.112ZM218.09 232.24V231.24H217.09V232.24H218.09ZM200.678 122.007L201.593 121.605L201.593 121.605L200.678 122.007ZM187.397 91.7241L188.313 91.3235L187.397 89.2283L186.481 91.3235L187.397 91.7241ZM156.704 231.24C152.831 231.24 149.528 231.159 146.777 230.822C144.018 230.484 141.91 229.897 140.376 228.948C138.883 228.024 137.884 226.726 137.378 224.821C136.86 222.872 136.849 220.251 137.452 216.71C138.66 209.623 142.259 199.223 148.481 183.954C154.694 168.708 163.486 148.694 175.032 122.409L173.2 121.605C161.659 147.879 152.855 167.923 146.629 183.2C140.413 198.454 136.73 209.043 135.481 216.374C134.855 220.043 134.822 222.989 135.445 225.335C136.08 227.724 137.388 229.451 139.323 230.648C141.218 231.821 143.66 232.455 146.534 232.807C149.415 233.161 152.824 233.24 156.704 233.24V231.24ZM157.704 238.112V232.24H155.704V238.112H157.704ZM75.568 239.112H156.704V237.112H75.568V239.112ZM74.568 232.24V238.112H76.568V232.24H74.568ZM134.858 141.811C118.462 181.555 109.217 203.952 101.202 216.444C97.2113 222.665 93.5879 226.324 89.6283 228.452C85.6719 230.579 81.2647 231.24 75.568 231.24V233.24C81.4039 233.24 86.1961 232.568 90.5752 230.214C94.9512 227.862 98.7994 223.893 102.885 217.524C111.024 204.838 120.354 182.212 136.707 142.574L134.858 141.811ZM180.341 33.8067C160.601 79.4132 146.067 114.64 134.858 141.811L136.707 142.574C147.916 115.405 162.443 80.1909 182.176 34.6011L180.341 33.8067ZM187.13 33.2039H181.258V35.2039H187.13V33.2039ZM187.13 35.2039H187.664V33.2039H187.13V35.2039ZM187.664 35.2039H193.536V33.2039H187.664V35.2039ZM192.618 34.6011C212.351 80.1909 226.878 115.405 238.087 142.574L239.936 141.811C228.726 114.64 214.193 79.4132 194.453 33.8067L192.618 34.6011ZM238.087 142.574C254.44 182.212 263.77 204.838 271.909 217.524C275.995 223.893 279.843 227.862 284.219 230.214C288.598 232.568 293.39 233.24 299.226 233.24V231.24C293.529 231.24 289.122 230.579 285.166 228.452C281.206 226.324 277.583 222.665 273.592 216.444C265.577 203.952 256.332 181.555 239.936 141.811L238.087 142.574ZM298.226 232.24V238.112H300.226V232.24H298.226ZM299.226 237.112H218.09V239.112H299.226V237.112ZM219.09 238.112V232.24H217.09V238.112H219.09ZM218.09 233.24C221.97 233.24 225.379 233.161 228.26 232.807C231.133 232.455 233.576 231.821 235.471 230.648C237.406 229.451 238.714 227.724 239.349 225.335C239.972 222.989 239.939 220.043 239.313 216.374C238.064 209.043 234.381 198.454 228.165 183.2C221.939 167.923 213.134 147.879 201.593 121.605L199.762 122.409C211.308 148.694 220.1 168.708 226.313 183.954C232.535 199.223 236.134 209.623 237.342 216.71C237.945 220.251 237.934 222.872 237.416 224.821C236.91 226.726 235.911 228.024 234.418 228.948C232.884 229.897 230.776 230.484 228.017 230.822C225.266 231.159 221.962 231.24 218.09 231.24V233.24ZM201.593 121.605C197.512 112.314 193.088 102.242 188.313 91.3235L186.481 92.1248C191.256 103.045 195.681 113.118 199.762 122.409L201.593 121.605ZM175.032 122.409C179.113 113.118 183.538 103.045 188.313 92.1248L186.481 91.3235C181.706 102.242 177.282 112.314 173.2 121.605L175.032 122.409Z" fill="white" mask="url(#path-11-inside-1_0:1)"/>
<path d="M19 141.563V130.936C24.8176 130.936 29.3046 125.94 32.4609 115.948C35.6173 105.957 37.1954 93.1946 37.1954 77.6621V44.9623C37.1954 29.0665 39.9805 17.6216 45.5505 10.6275C51.1824 3.54248 60.373 0 73.1222 0H76V10.6275C71.0489 10.9908 67.1498 11.7174 64.3029 12.8074C61.456 13.8974 59.1661 15.8049 57.4332 18.5299C55.7622 21.1641 54.6482 24.3886 54.0912 28.2036C53.5961 32.0186 53.3485 37.2415 53.3485 43.8723V70.5772C53.3485 78.5705 53.0391 86.1096 52.4202 93.1946C51.8013 100.189 50.873 106.683 49.6352 112.678C48.3974 118.673 46.6954 123.76 44.5293 127.938C42.3632 132.026 39.8567 134.796 37.0098 136.249C47.9023 141.699 53.3485 161.683 53.3485 196.199V227.128C53.3485 233.759 53.5961 238.981 54.0912 242.796C54.6482 246.611 55.7622 249.836 57.4332 252.47C59.1661 255.195 61.456 257.103 64.3029 258.193C67.1498 259.283 71.0489 260.009 76 260.373V271H73.1222C60.373 271 51.1824 267.458 45.5505 260.373C39.9805 253.288 37.1954 241.843 37.1954 226.038V189.25C37.1954 174.172 35.6482 162.455 32.5537 154.098C29.5212 145.741 25.0033 141.563 19 141.563Z" fill="#2775B7"/>
<path d="M356 141.563V130.936C350.182 130.936 345.695 125.94 342.539 115.948C339.383 105.957 337.805 93.1946 337.805 77.6621V44.9623C337.805 29.0665 335.02 17.6216 329.45 10.6275C323.818 3.54248 314.627 0 301.878 0H299V10.6275C303.951 10.9908 307.85 11.7174 310.697 12.8074C313.544 13.8974 315.834 15.8049 317.567 18.5299C319.238 21.1641 320.352 24.3886 320.909 28.2036C321.404 32.0186 321.651 37.2415 321.651 43.8723V70.5772C321.651 78.5705 321.961 86.1096 322.58 93.1946C323.199 100.189 324.127 106.683 325.365 112.678C326.603 118.673 328.305 123.76 330.471 127.938C332.637 132.026 335.143 134.796 337.99 136.249C327.098 141.699 321.651 161.683 321.651 196.199V227.128C321.651 233.759 321.404 238.981 320.909 242.796C320.352 246.611 319.238 249.836 317.567 252.47C315.834 255.195 313.544 257.103 310.697 258.193C307.85 259.283 303.951 260.009 299 260.373V271H301.878C314.627 271 323.818 267.458 329.45 260.373C335.02 253.288 337.805 241.843 337.805 226.038V189.25C337.805 174.172 339.352 162.455 342.446 154.098C345.479 145.741 349.997 141.563 356 141.563Z" fill="#2775B7"/>
</svg>
