<svg width="390" height="390" viewBox="0 0 390 390" fill="none" xmlns="http://www.w3.org/2000/svg">
<rect width="390" height="390" fill="white"/>
<path fill-rule="evenodd" clip-rule="evenodd" d="M54.4785 329.303C68.3105 360.792 68.9838 362.325 59.6945 362.325V364.084H84V362.325C77.0905 362.325 75.7723 359.13 65.9619 335.35C62.604 327.21 58.2513 316.66 52.3389 303H50.58H50.42H48.6611C42.7487 316.66 38.396 327.21 35.0381 335.35C25.2277 359.13 23.9095 362.325 17 362.325V364.084H41.3055V362.325C32.0162 362.325 32.6895 360.792 46.5215 329.303C47.7441 326.519 49.0696 323.502 50.5 320.231C51.9304 323.502 53.2559 326.519 54.4785 329.303Z" fill="black"/>
<path d="M160 353H159C159 359 159 359 136 359L149 342L135.5 325C158.5 325 159 325 159 329H160V320H127V322L143 342L126 363V364H160V353Z" fill="black"/>
<path d="M340 358V326C340 323 340 321 335 321V320H351V321C346 321 346 323 346 326V338.8L360 323C360 323 361 321 356 321V320H372V321C367 321 365 324 365 324L351 342L365 360C365 360 367 363 372 363V364H356V363C361 363 359 361 359 361L346 345V358C346 361 346 363 351 363V364H335V363C340 363 340 361 340 358Z" fill="black"/>
<path d="M325 353H324C324 359 324 359 301 359L314 342L300.5 325C323.5 325 324 325 324 329H325V320H292V322L308 342L291 363V364H325V353Z" fill="black"/>
<path d="M166 364V363C171 363 171 361 171 358V325C171 322 171 321 166 321V320H182V321C177 321 177 321 177 322L196 352V325C196 322 196 321 191 321V320H207V321C202 321 202 322 202 325V358C202 361 202 363 207 363V364H191V363C196 363 196 363 196 362L177 333V358C177 361 177 363 182 363V364H166Z" fill="black"/>
<path d="M110 364V363C105 363 105 361 105 358V324C119 324 119 324 119 329H120V320H84V329H85C85 324 85 324 99 324V358C99 361 99 363 94 363V364H110Z" fill="black"/>
<path d="M283.167 364V362.614C275.25 362.614 275.25 359.841 275.25 355.682V308.545C297.417 308.545 297.417 308.545 297.417 315.477H299V303H242V315.477H243.583C243.583 308.545 243.583 308.545 265.75 308.545V355.682C265.75 359.841 265.75 362.614 257.833 362.614V364H283.167Z" fill="black"/>
<path fill-rule="evenodd" clip-rule="evenodd" d="M213 341C213 338 213 320 231 320C249 320 249 338 249 341C249 344 249 364 231 364C213 364 213 344 213 341ZM219.993 340.642C219.928 337.082 219.69 324 231 324C242.31 324 242.072 337.082 242.007 340.642C242.003 340.859 242 341.041 242 341.182C242 341.32 242.003 341.502 242.007 341.723C242.071 345.426 242.325 360 231 360C219.675 360 219.929 345.426 219.993 341.723C219.997 341.502 220 341.32 220 341.182C220 341.041 219.997 340.859 219.993 340.642Z" fill="black"/>
<path d="M26 297H7V372H26V369H13V300H26V297Z" fill="#FB0005"/>
<path d="M363 297H382V372H363V369H376V300H363V297Z" fill="#FF0000"/>
<mask id="path-11-inside-1_16:3" fill="white">
<path fill-rule="evenodd" clip-rule="evenodd" d="M181.116 137.007C134.942 242.124 132.695 247.24 163.704 247.24V253.112H82.568V247.24C105.633 247.24 110.033 236.574 142.782 157.193C153.992 130.022 168.522 94.8021 188.258 49.2039H194.13H194.664H200.536C220.272 94.8021 234.802 130.022 246.011 157.193C278.761 236.574 283.161 247.24 306.226 247.24V253.112H225.09V247.24C256.099 247.24 253.852 242.124 207.678 137.007C203.597 127.716 199.172 117.643 194.397 106.724C189.622 117.643 185.197 127.716 181.116 137.007Z"/>
</mask>
<path fill-rule="evenodd" clip-rule="evenodd" d="M181.116 137.007C134.942 242.124 132.695 247.24 163.704 247.24V253.112H82.568V247.24C105.633 247.24 110.033 236.574 142.782 157.193C153.992 130.022 168.522 94.8021 188.258 49.2039H194.13H194.664H200.536C220.272 94.8021 234.802 130.022 246.011 157.193C278.761 236.574 283.161 247.24 306.226 247.24V253.112H225.09V247.24C256.099 247.24 253.852 242.124 207.678 137.007C203.597 127.716 199.172 117.643 194.397 106.724C189.622 117.643 185.197 127.716 181.116 137.007Z" fill="black"/>
<path d="M163.704 247.24H164.704V246.24H163.704V247.24ZM181.116 137.007L182.032 137.409L182.032 137.409L181.116 137.007ZM163.704 253.112V254.112H164.704V253.112H163.704ZM82.568 253.112H81.568V254.112H82.568V253.112ZM82.568 247.24V246.24H81.568V247.24H82.568ZM142.782 157.193L143.707 157.574L143.707 157.574L142.782 157.193ZM188.258 49.2039V48.2039H187.602L187.341 48.8067L188.258 49.2039ZM200.536 49.2039L201.453 48.8067L201.192 48.2039H200.536V49.2039ZM246.011 157.193L245.087 157.574L245.087 157.574L246.011 157.193ZM306.226 247.24H307.226V246.24H306.226V247.24ZM306.226 253.112V254.112H307.226V253.112H306.226ZM225.09 253.112H224.09V254.112H225.09V253.112ZM225.09 247.24V246.24H224.09V247.24H225.09ZM207.678 137.007L206.762 137.409L206.762 137.409L207.678 137.007ZM194.397 106.724L195.313 106.323L194.397 104.228L193.481 106.323L194.397 106.724ZM163.704 246.24C159.831 246.24 156.528 246.159 153.777 245.822C151.018 245.484 148.91 244.897 147.376 243.948C145.883 243.024 144.884 241.726 144.378 239.821C143.86 237.872 143.849 235.251 144.452 231.71C145.66 224.623 149.259 214.223 155.481 198.954C161.694 183.708 170.486 163.694 182.032 137.409L180.201 136.605C168.659 162.879 159.855 182.923 153.629 198.2C147.413 213.454 143.73 224.043 142.481 231.374C141.855 235.043 141.822 237.989 142.445 240.335C143.08 242.724 144.388 244.451 146.323 245.648C148.218 246.821 150.66 247.455 153.534 247.807C156.415 248.161 159.824 248.24 163.704 248.24V246.24ZM164.704 253.112V247.24H162.704V253.112H164.704ZM82.568 254.112H163.704V252.112H82.568V254.112ZM81.568 247.24V253.112H83.568V247.24H81.568ZM141.858 156.811C125.462 196.555 116.217 218.952 108.202 231.444C104.211 237.665 100.588 241.324 96.6283 243.452C92.6719 245.579 88.2647 246.24 82.568 246.24V248.24C88.4039 248.24 93.1962 247.568 97.5752 245.214C101.951 242.862 105.799 238.893 109.885 232.524C118.024 219.838 127.354 197.212 143.707 157.574L141.858 156.811ZM187.341 48.8067C167.601 94.4132 153.068 129.64 141.858 156.811L143.707 157.574C154.916 130.405 169.443 95.1909 189.176 49.6011L187.341 48.8067ZM194.13 48.2039H188.258V50.2039H194.13V48.2039ZM194.13 50.2039H194.664V48.2039H194.13V50.2039ZM194.664 50.2039H200.536V48.2039H194.664V50.2039ZM199.618 49.6011C219.351 95.1909 233.878 130.405 245.087 157.574L246.936 156.811C235.726 129.64 221.193 94.4132 201.453 48.8067L199.618 49.6011ZM245.087 157.574C261.44 197.212 270.77 219.838 278.909 232.524C282.995 238.893 286.843 242.862 291.219 245.214C295.598 247.568 300.39 248.24 306.226 248.24V246.24C300.529 246.24 296.122 245.579 292.166 243.452C288.206 241.324 284.583 237.665 280.592 231.444C272.577 218.952 263.332 196.555 246.936 156.811L245.087 157.574ZM305.226 247.24V253.112H307.226V247.24H305.226ZM306.226 252.112H225.09V254.112H306.226V252.112ZM226.09 253.112V247.24H224.09V253.112H226.09ZM225.09 248.24C228.97 248.24 232.379 248.161 235.26 247.807C238.133 247.455 240.576 246.821 242.471 245.648C244.406 244.451 245.714 242.724 246.349 240.335C246.972 237.989 246.939 235.043 246.313 231.374C245.064 224.043 241.381 213.454 235.165 198.2C228.939 182.923 220.134 162.879 208.593 136.605L206.762 137.409C218.308 163.694 227.1 183.708 233.313 198.954C239.535 214.223 243.134 224.623 244.342 231.71C244.945 235.251 244.934 237.872 244.416 239.821C243.91 241.726 242.911 243.024 241.418 243.948C239.884 244.897 237.776 245.484 235.017 245.822C232.266 246.159 228.962 246.24 225.09 246.24V248.24ZM208.593 136.605C204.512 127.314 200.088 117.242 195.313 106.323L193.481 107.125C198.256 118.045 202.681 128.118 206.762 137.409L208.593 136.605ZM182.032 137.409C186.113 128.118 190.538 118.045 195.313 107.125L193.481 106.323C188.706 117.242 184.282 127.314 180.201 136.605L182.032 137.409Z" fill="black" mask="url(#path-11-inside-1_16:3)"/>
<path d="M26 156.563V145.936C31.8176 145.936 36.3046 140.94 39.4609 130.948C42.6173 120.957 44.1954 108.195 44.1954 92.6621V59.9623C44.1954 44.0665 46.9805 32.6216 52.5505 25.6275C58.1824 18.5425 67.373 15 80.1222 15H83V25.6275C78.0489 25.9908 74.1498 26.7174 71.3029 27.8074C68.456 28.8974 66.1661 30.8049 64.4332 33.5299C62.7622 36.1641 61.6482 39.3886 61.0912 43.2036C60.5961 47.0186 60.3485 52.2415 60.3485 58.8723V85.5772C60.3485 93.5705 60.0391 101.11 59.4202 108.195C58.8013 115.189 57.873 121.683 56.6352 127.678C55.3974 133.673 53.6954 138.76 51.5293 142.938C49.3632 147.026 46.8567 149.796 44.0098 151.249C54.9023 156.699 60.3485 176.683 60.3485 211.199V242.128C60.3485 248.759 60.5961 253.981 61.0912 257.796C61.6482 261.611 62.7622 264.836 64.4332 267.47C66.1661 270.195 68.456 272.103 71.3029 273.193C74.1498 274.283 78.0489 275.009 83 275.373V286H80.1222C67.373 286 58.1824 282.458 52.5505 275.373C46.9805 268.288 44.1954 256.843 44.1954 241.038V204.25C44.1954 189.172 42.6482 177.455 39.5537 169.098C36.5212 160.741 32.0033 156.563 26 156.563Z" fill="#2775B7"/>
<path d="M363 156.563V145.936C357.182 145.936 352.695 140.94 349.539 130.948C346.383 120.957 344.805 108.195 344.805 92.6621V59.9623C344.805 44.0665 342.02 32.6216 336.45 25.6275C330.818 18.5425 321.627 15 308.878 15H306V25.6275C310.951 25.9908 314.85 26.7174 317.697 27.8074C320.544 28.8974 322.834 30.8049 324.567 33.5299C326.238 36.1641 327.352 39.3886 327.909 43.2036C328.404 47.0186 328.651 52.2415 328.651 58.8723V85.5772C328.651 93.5705 328.961 101.11 329.58 108.195C330.199 115.189 331.127 121.683 332.365 127.678C333.603 133.673 335.305 138.76 337.471 142.938C339.637 147.026 342.143 149.796 344.99 151.249C334.098 156.699 328.651 176.683 328.651 211.199V242.128C328.651 248.759 328.404 253.981 327.909 257.796C327.352 261.611 326.238 264.836 324.567 267.47C322.834 270.195 320.544 272.103 317.697 273.193C314.85 274.283 310.951 275.009 306 275.373V286H308.878C321.627 286 330.818 282.458 336.45 275.373C342.02 268.288 344.805 256.843 344.805 241.038V204.25C344.805 189.172 346.352 177.455 349.446 169.098C352.479 160.741 356.997 156.563 363 156.563Z" fill="#2775B7"/>
</svg>
