<svg width="216" height="125" viewBox="0 0 216 125" fill="none" xmlns="http://www.w3.org/2000/svg">
<g clip-path="url(#clip0_303_130)">
<rect width="216" height="125" fill="#F3F3F3"/>
<path d="M18 116L2 125.25L2 143.75L18 153L34 143.75V125.25L18 116Z" fill="#FBFBFB"/>
<path d="M36 85L20 94.25L20 112.75L36 122L52 112.75V94.25L36 85Z" fill="#FBFBFB"/>
<path d="M54 116L38 125.25L38 143.75L54 153L70 143.75V125.25L54 116Z" fill="#FBFBFB"/>
<path d="M90 116L74 125.25L74 143.75L90 153L106 143.75V125.25L90 116Z" fill="#FBFBFB"/>
<path d="M108 85L92 94.25L92 112.75L108 122L124 112.75V94.25L108 85Z" fill="#FBFBFB"/>
<path d="M126 116L110 125.25L110 143.75L126 153L142 143.75V125.25L126 116Z" fill="#FEFDFD"/>
<path d="M72 85L56 94.25L56 112.75L72 122L88 112.75V94.25L72 85Z" fill="#FEFDFD"/>
<path d="M54 54L38 63.25L38 81.75L54 91L70 81.75V63.25L54 54Z" fill="#FBFBFB"/>
<path d="M72 23L56 32.25L56 50.75L72 60L88 50.75V32.25L72 23Z" fill="#FBFBFB"/>
<path d="M90 54L74 63.25L74 81.75L90 91L106 81.75V63.25L90 54Z" fill="#FBFBFB"/>
<path d="M162 116L146 125.25L146 143.75L162 153L178 143.75V125.25L162 116Z" fill="#FBFBFB"/>
<path d="M180 85L164 94.25L164 112.75L180 122L196 112.75V94.25L180 85Z" fill="#FBFBFB"/>
<path d="M198 116L182 125.25L182 143.75L198 153L214 143.75V125.25L198 116Z" fill="#FBFBFB"/>
<path d="M18 -8L2 1.25L2 19.75L18 29L34 19.75V1.25L18 -8Z" fill="#FBFBFB"/>
<path d="M54 -8L38 1.25L38 19.75L54 29L70 19.75V1.25L54 -8Z" fill="#FBFBFB"/>
<path d="M90 -8L74 1.25L74 19.75L90 29L106 19.75V1.25L90 -8Z" fill="#FBFBFB"/>
<path d="M126 -8L110 1.25L110 19.75L126 29L142 19.75V1.25L126 -8Z" fill="#FEFDFD"/>
<path d="M162 -8L146 1.25L146 19.75L162 29L178 19.75V1.25L162 -8Z" fill="#FBFBFB"/>
<path d="M198 -8L182 1.25L182 19.75L198 29L214 19.75V1.25L198 -8Z" fill="#FBFBFB"/>
<path d="M144 85L128 94.25L128 112.75L144 122L160 112.75V94.25L144 85Z" fill="#FBFBFB"/>
<path d="M126 54L110 63.25L110 81.75L126 91L142 81.75V63.25L126 54Z" fill="#FEFDFD"/>
<path d="M162 54L146 63.25L146 81.75L162 91L178 81.75V63.25L162 54Z" fill="#FBFBFB"/>
<path d="M108 23L92 32.25L92 50.75L108 60L124 50.75V32.25L108 23Z" fill="#FBFBFB"/>
<path d="M-1.64181e-07 85L-16 94.25L-16 112.75L1.74061e-06 122L16 112.75V94.25L-1.64181e-07 85Z" fill="#FEFDFD"/>
<path d="M0 23L-16 32.25L-16 50.75L1.90735e-06 60L16 50.75V32.25L0 23Z" fill="#FBFBFB"/>
<path d="M18 54L2 63.25L2 81.75L18 91L34 81.75V63.25L18 54Z" fill="#FBFBFB"/>
<path d="M36 23L20 32.25L20 50.75L36 60L52 50.75V32.25L36 23Z" fill="#FEFDFD"/>
<path d="M144 23L128 32.25L128 50.75L144 60L160 50.75V32.25L144 23Z" fill="#FBFBFB"/>
<path d="M180 23L164 32.25L164 50.75L180 60L196 50.75V32.25L180 23Z" fill="#FEFDFD"/>
<path d="M198 54L182 63.25L182 81.75L198 91L214 81.75V63.25L198 54Z" fill="#FBFBFB"/>
<path d="M216 85L200 94.25L200 112.75L216 122L232 112.75V94.25L216 85Z" fill="#FEFDFD"/>
<path d="M216 23L200 32.25L200 50.75L216 60L232 50.75V32.25L216 23Z" fill="#FBFBFB"/>
</g>
<defs>
<clipPath id="clip0_303_130">
<rect width="216" height="125" fill="white"/>
</clipPath>
</defs>
</svg>

