<svg width="175" height="175" viewBox="0 0 175 175" fill="none" xmlns="http://www.w3.org/2000/svg">
<path d="M102.678 42.6447C98.0146 38.0017 92.4781 34.3188 86.3847 31.806C80.2914 29.2933 73.7605 28 67.1652 28C60.5698 28 54.0389 29.2933 47.9456 31.806C41.8522 34.3188 36.3157 38.0017 31.652 42.6447C26.0556 48.2162 21.6163 54.8305 18.5876 62.1101C15.5589 69.3896 14 77.1917 14 85.0711C14 92.9504 15.5589 100.753 18.5876 108.032C21.6163 115.312 26.0556 121.926 31.652 127.497C38.1811 133.998 45.9323 139.154 54.463 142.672C62.9937 146.189 72.1369 148 81.3704 148C90.604 148 99.7471 146.189 108.278 142.672C116.809 139.154 124.56 133.998 131.089 127.497C138.551 120.069 144.47 111.25 148.508 101.543C152.425 92.1295 154.498 82.0601 154.619 71.8771H160L141.647 37.3698L123.293 71.8771H130.51C130.39 78.9082 128.941 85.857 126.236 92.3591C123.409 99.1533 118.556 104.62 113.332 109.82L116.173 112.648C111.603 117.198 106.177 120.808 100.206 123.27C94.2341 125.733 87.8339 127 81.3704 127C74.9069 127 68.5067 125.733 62.5352 123.27C56.5637 120.808 51.8482 116.491 47.2778 111.941L44.4439 114.762C40.5273 110.863 37.4206 106.234 35.3009 101.14C33.1813 96.0455 32.0904 90.5853 32.0904 85.0711C32.0904 79.5569 33.1813 74.0966 35.3009 69.0022C37.4206 63.9077 41.2304 59.9789 45.147 56.0797L42.306 53.2513C45.5705 50.0012 49.4461 47.4231 53.7114 45.6642C57.9768 43.9053 62.5484 43 67.1652 43C71.7819 43 76.3535 43.9053 80.6188 45.6642C84.677 47.3377 87.7394 50.3926 90.8389 53.4845L91.3142 53.9583L94.155 51.1299C96.7667 53.73 98.8384 56.8167 100.252 60.2138C101.665 63.6109 102.393 67.2519 102.393 70.9289C102.393 74.6059 101.665 78.247 100.252 81.6441C99.0378 84.5619 96.8143 86.7292 94.5562 88.9301C94.1853 89.2917 93.8134 89.6541 93.445 90.0209L96.2859 92.8492C94.3272 94.7993 92.0019 96.3461 89.4426 97.4015C86.8834 98.4568 84.1405 99 81.3704 99C78.6003 99 75.8574 98.4568 73.2982 97.4015C71.336 96.5923 69.9287 95.0785 68.4961 93.5373C68.0604 93.0686 67.6219 92.5969 67.1652 92.1422L64.3242 94.9703C63.0184 93.6703 61.9826 92.127 61.2759 90.4284C60.5692 88.7298 60.2054 86.9093 60.2054 85.0708C60.2054 83.2323 60.5692 81.4118 61.2759 79.7133C61.6251 78.874 62.0546 78.0726 62.5574 77.3197C65.1545 77.8997 67.9848 77.1836 70.0062 75.1712C73.1443 72.047 73.1443 66.9817 70.0062 63.8575C66.868 60.7333 61.7801 60.7333 58.642 63.8575C55.9003 66.587 55.5539 70.7982 57.6029 73.9021C56.8569 75.0053 56.2215 76.1825 55.7079 77.4172C54.6983 79.8437 54.1787 82.4444 54.1787 85.0708C54.1787 87.6973 54.6983 90.298 55.7079 92.7245C56.7174 95.151 58.1972 97.3558 60.0627 99.213C62.8609 101.999 66.1827 104.209 69.8387 105.716C73.4947 107.224 77.4132 108 81.3704 108C85.3277 108 89.2462 107.224 92.9022 105.716C96.5582 104.209 99.8801 101.999 102.678 99.2132C106.409 95.4989 109.369 91.0893 111.388 86.2363C113.407 81.3832 114.446 76.1818 114.446 70.9289C114.446 65.6761 113.407 60.4746 111.388 55.6216C109.369 50.7686 106.409 46.359 102.678 42.6447Z" fill="#25BAE9"/>
</svg>
