<svg width="287" height="175" viewBox="0 0 287 175" fill="none" xmlns="http://www.w3.org/2000/svg">
<path d="M41.0001 175H26.0001V80H0L8.47578e-05 67H67.0383V80H41.0001V175Z" fill="#323233"/>
<path d="M123 175L89.0001 175C81.9018 175 75.9923 172.984 71.8774 168.953C67.8653 164.922 66.0001 159.236 66.0001 152V119C66.0001 111.764 67.8653 106.003 71.8774 101.972C75.9923 97.9403 81.9018 96 89.0001 96H101C108.098 96 114.313 97.9403 118.325 101.972C122.337 106.003 124.343 111.636 124.343 118.872L124 140.889L77.0001 141L76.9697 151.743C76.9697 160.735 81.2904 165.232 89.9318 165.232L123 165V175ZM77.0001 133L114 133V119C114 110.11 108.641 106 100 106H90.0001C81.3587 106 77.0001 110.11 77.0001 119V133Z" fill="#323233"/>
<path d="M135.5 97H146.5L166 164L185.5 96H196.5L173 175H159L135.5 97Z" fill="#323233"/>
<path d="M238 175L228 175C220.902 175 215.398 172.984 211.283 168.953C207.271 164.922 205 159.236 205 152V119C205 111.764 207.271 106.003 211.283 101.972C215.398 97.9403 220.902 95.9246 228 95.9246H238C245.098 95.9246 251.027 97.9403 255.04 101.972C259.155 106.003 261 111.764 261 119V152C261 159.236 259.155 164.922 255.04 168.953C251.027 172.984 245.098 175 238 175ZM229 165H237C245.641 165 250 159.89 250 151V120C250 111.11 245.641 106 237 106H229C220.359 106 216 111.11 216 120V151C216 159.89 220.359 165 229 165Z" fill="#323233"/>
<path d="M287 175H276V67L287 67V175Z" fill="#323233"/>
<path d="M174.1 10.633C170.729 7.26191 166.727 4.58783 162.323 2.76342C157.918 0.939011 153.197 0 148.43 0C143.662 0 138.942 0.939014 134.537 2.76342C130.133 4.58784 126.131 7.26192 122.76 10.633C118.714 14.6783 115.505 19.4807 113.316 24.7661C111.127 30.0516 110 35.7164 110 41.4373C110 47.1582 111.127 52.8231 113.316 58.1085C115.505 63.3939 118.714 68.1964 122.76 72.2417C127.479 76.9612 133.082 80.7049 139.248 83.2591C145.415 85.8132 152.024 87.1279 158.698 87.1279C165.372 87.1279 171.981 85.8132 178.148 83.2591C184.314 80.7049 189.917 76.9612 194.636 72.2417C200.03 66.8479 204.309 60.4446 207.228 53.3974C210.059 46.5622 211.557 39.2512 211.645 31.8576H215.535L202.268 6.80309L189.002 31.8576H194.218C194.131 36.9627 193.084 42.008 191.129 46.7289C189.085 51.662 185.577 55.6309 181.801 59.4065L183.855 61.4602C180.551 64.7638 176.629 67.3844 172.313 69.1723C167.996 70.9602 163.37 71.8805 158.698 71.8805C154.026 71.8805 149.4 70.9602 145.083 69.1723C140.767 67.3844 137.358 64.2504 134.054 60.9468L132.006 62.9952C129.175 60.1642 126.929 56.8033 125.397 53.1044C123.865 49.4055 123.076 45.441 123.076 41.4373C123.076 37.4337 123.865 33.4692 125.397 29.7703C126.929 26.0714 129.683 23.2188 132.514 20.3877L130.461 18.3341C132.82 15.9743 135.622 14.1025 138.705 12.8254C141.788 11.5483 145.093 10.891 148.43 10.891C151.767 10.891 155.072 11.5483 158.155 12.8254C161.088 14.0404 163.302 16.2585 165.542 18.5034L165.886 18.8474L167.939 16.7938C169.827 18.6816 171.325 20.9228 172.346 23.3893C173.368 25.8559 173.894 28.4995 173.894 31.1692C173.894 33.839 173.368 36.4826 172.346 38.9491C171.469 41.0677 169.861 42.6412 168.229 44.2393C167.961 44.5018 167.692 44.7649 167.426 45.0312L169.48 47.0848C168.064 48.5006 166.383 49.6238 164.533 50.39C162.683 51.1563 160.7 51.5506 158.698 51.5506C156.696 51.5506 154.713 51.1563 152.863 50.39C151.445 49.8025 150.427 48.7034 149.392 47.5844C149.077 47.244 148.76 46.9016 148.43 46.5714L146.376 48.6248C145.432 47.6809 144.684 46.5604 144.173 45.3271C143.662 44.0938 143.399 42.772 143.399 41.4372C143.399 40.1023 143.662 38.7805 144.173 37.5472C144.425 36.9378 144.736 36.356 145.099 35.8093C146.977 36.2305 149.022 35.7105 150.483 34.2494C152.752 31.981 152.752 28.3033 150.483 26.0349C148.215 23.7665 144.537 23.7665 142.269 26.0349C140.287 28.0167 140.037 31.0743 141.518 33.3279C140.979 34.129 140.519 34.9837 140.148 35.8801C139.418 37.6419 139.043 39.5302 139.043 41.4372C139.043 43.3441 139.418 45.2324 140.148 46.9942C140.878 48.756 141.947 50.3568 143.296 51.7053C145.319 53.7279 147.72 55.3325 150.362 56.4272C153.005 57.5218 155.838 58.0852 158.698 58.0852C161.558 58.0852 164.391 57.5218 167.034 56.4272C169.676 55.3325 172.078 53.7281 174.1 51.7054C176.797 49.0086 178.936 45.807 180.396 42.2833C181.855 38.7597 182.606 34.9831 182.606 31.1692C182.606 27.3553 181.855 23.5787 180.396 20.0551C178.936 16.5315 176.797 13.3298 174.1 10.633Z" fill="#25BAE9"/>
</svg>

