<svg width="287" height="287" viewBox="0 0 287 287" fill="none" xmlns="http://www.w3.org/2000/svg">
<g clip-path="url(#clip0_301_2)">
<path d="M40.0001 287H25.0001V192H-1L-0.999915 179H66.0383V192H40.0001V287Z" fill="white"/>
<path d="M122 287L88.0001 287C80.9018 287 74.9923 284.984 70.8774 280.953C66.8653 276.922 65.0001 271.236 65.0001 264V231C65.0001 223.764 66.8653 218.003 70.8774 213.972C74.9923 209.94 80.9018 208 88.0001 208H100C107.098 208 113.313 209.94 117.325 213.972C121.337 218.003 123.343 223.636 123.343 230.872L123 252.889L76.0001 253L75.9697 263.743C75.9697 272.735 80.2904 277.232 88.9318 277.232L122 277V287ZM76.0001 245L113 245V231C113 222.11 107.641 218 99.0001 218H89.0001C80.3587 218 76.0001 222.11 76.0001 231V245Z" fill="white"/>
<path d="M134.5 209H145.5L165 276L184.5 208H195.5L172 287H158L134.5 209Z" fill="white"/>
<path d="M237 287L227 287C219.902 287 214.398 284.984 210.283 280.953C206.271 276.922 204 271.236 204 264V231C204 223.764 206.271 218.003 210.283 213.972C214.398 209.94 219.902 207.925 227 207.925H237C244.098 207.925 250.027 209.94 254.04 213.972C258.155 218.003 260 223.764 260 231V264C260 271.236 258.155 276.922 254.04 280.953C250.027 284.984 244.098 287 237 287ZM228 277H236C244.641 277 249 271.89 249 263V232C249 223.11 244.641 218 236 218H228C219.359 218 215 223.11 215 232V263C215 271.89 219.359 277 228 277Z" fill="white"/>
<path d="M286 287H275V179L286 179V287Z" fill="white"/>
<path d="M166.803 21.8449C159.871 14.9192 151.642 9.42548 142.585 5.67731C133.529 1.92915 123.822 0 114.019 0C104.217 0 94.5099 1.92916 85.4533 5.67732C76.3968 9.42549 68.1678 14.9193 61.2362 21.845C52.9183 30.1558 46.3202 40.0222 41.8186 50.8808C37.3169 61.7395 35 73.3777 35 85.131C35 96.8843 37.3169 108.523 41.8186 119.381C46.3202 130.24 52.9183 140.106 61.2362 148.417C70.9405 158.113 82.4611 165.804 95.1403 171.052C107.819 176.299 121.409 179 135.133 179C148.857 179 162.446 176.299 175.125 171.052C187.804 165.804 199.325 158.113 209.029 148.417C220.12 137.336 228.917 124.181 234.919 109.702C240.741 95.6599 243.822 80.6397 244.002 65.45H252L224.722 13.9766L197.443 65.45H208.168C207.991 75.9381 205.837 86.3034 201.816 96.0023C197.615 106.137 190.401 114.291 182.638 122.048L186.86 126.267C180.067 133.054 172.003 138.438 163.128 142.111C154.252 145.784 144.739 147.675 135.133 147.675C125.526 147.675 116.013 145.784 107.138 142.111C98.2625 138.438 91.2538 131.999 84.4608 125.212L80.2488 129.421C74.4276 123.605 69.81 116.7 66.6596 109.1C63.5092 101.501 61.8877 93.3564 61.8877 85.131C61.8877 76.9057 63.5092 68.7608 66.6596 61.1616C69.81 53.5624 75.4726 47.7018 81.2938 41.8856L77.0712 37.6665C81.9233 32.8185 87.6836 28.9728 94.0232 26.3491C100.363 23.7254 107.158 22.375 114.019 22.375C120.881 22.375 127.676 23.7254 134.016 26.3491C140.047 28.8454 144.599 33.4023 149.206 38.0144L149.912 38.7211L154.135 34.5022C158.016 38.3806 161.095 42.9849 163.196 48.0522C165.297 53.1196 166.378 58.5508 166.378 64.0357C166.378 69.5205 165.297 74.9517 163.196 80.0191C161.392 84.3715 158.087 87.6043 154.731 90.8875C154.179 91.4267 153.627 91.9673 153.079 92.5145L157.302 96.7335C154.39 99.6422 150.934 101.95 147.13 103.524C143.327 105.098 139.25 105.908 135.133 105.908C131.016 105.908 126.939 105.098 123.135 103.524C120.219 102.317 118.127 100.059 115.998 97.7598C115.35 97.0606 114.698 96.357 114.019 95.6787L109.797 99.8974C107.856 97.9582 106.317 95.656 105.266 93.1224C104.216 90.5887 103.675 87.8731 103.675 85.1307C103.675 82.3882 104.216 79.6726 105.266 77.1389C105.785 75.887 106.424 74.6916 107.171 73.5685C111.031 74.4338 115.238 73.3655 118.242 70.3637C122.906 65.7035 122.906 58.1477 118.242 53.4875C113.578 48.8272 106.016 48.8272 101.351 53.4875C97.2764 57.559 96.7617 63.8407 99.8071 68.4706C98.6983 70.1163 97.7539 71.8723 96.9904 73.7139C95.4899 77.3335 94.7176 81.2129 94.7176 85.1307C94.7176 89.0484 95.4899 92.9278 96.9904 96.5474C98.491 100.167 100.69 103.456 103.463 106.226C107.622 110.381 112.559 113.678 117.993 115.927C123.427 118.176 129.251 119.333 135.133 119.333C141.014 119.333 146.838 118.176 152.272 115.927C157.706 113.678 162.644 110.382 166.803 106.226C172.348 100.686 176.747 94.1082 179.748 86.8691C182.749 79.63 184.293 71.8712 184.293 64.0357C184.293 56.2001 182.749 48.4413 179.748 41.2022C176.747 33.9631 172.348 27.3855 166.803 21.8449Z" fill="#25BAE9"/>
</g>
<defs>
<clipPath id="clip0_301_2">
<rect width="287" height="287" fill="white"/>
</clipPath>
</defs>
</svg>
