<svg width="220" height="83" viewBox="0 0 220 83" fill="none" xmlns="http://www.w3.org/2000/svg">
<path d="M31.4286 83H19.9304V9.99074H0L6.49711e-05 0H51.3883V9.99074H31.4286V83Z" fill="white"/>
<path d="M94.2858 83L68.2231 83C62.7818 83 58.252 81.4509 55.0976 78.3528C52.0222 75.2547 50.5924 70.8848 50.5924 65.3241V39.963C50.5924 34.4022 52.0222 29.9744 55.0976 26.8763C58.252 23.7782 62.7818 22.287 68.2231 22.287H77.4217C82.8629 22.287 87.6266 23.7782 90.7021 26.8763C93.7775 29.9744 95.3152 34.3038 95.3152 39.8646L95.0523 56.7851L59.0244 56.8704L59.0011 65.1262C59.0011 72.0374 62.3132 75.493 68.9372 75.493L94.2858 75.3148V83ZM59.0245 50.7222L87.3868 50.7222V39.963C87.3868 33.1312 83.2792 29.9722 76.6551 29.9722H68.9896C62.3655 29.9722 59.0245 33.1312 59.0245 39.963V50.7222Z" fill="white"/>
<path d="M103.868 23.0556H112.3L127.247 74.5463L142.195 22.287H150.627L132.613 83H121.882L103.868 23.0556Z" fill="white"/>
<path d="M182.439 83L174.774 83C169.332 83 165.114 81.4509 161.959 78.3528C158.884 75.2547 157.143 70.8848 157.143 65.3241V39.963C157.143 34.4022 158.884 29.9744 161.959 26.8763C165.114 23.7782 169.332 22.2291 174.774 22.2291H182.439C187.88 22.2291 192.425 23.7782 195.501 26.8763C198.655 29.9744 200.07 34.4022 200.07 39.963V65.3241C200.07 70.8848 198.655 75.2547 195.501 78.3528C192.425 81.4509 187.88 83 182.439 83ZM175.54 75.3148H181.673C188.297 75.3148 191.638 71.3873 191.638 64.5556V40.7315C191.638 33.8997 188.297 29.9722 181.673 29.9722H175.54C168.916 29.9722 165.575 33.8997 165.575 40.7315V64.5556C165.575 71.3873 168.916 75.3148 175.54 75.3148Z" fill="white"/>
<path d="M220 83H211.568V1.97887e-05L220 0V83Z" fill="white"/>
</svg>
